<svg width="12" height="8" viewBox="0 0 12 8" fill="none" xmlns="http://www.w3.org/2000/svg">
<g id="CX">
<g filter="url(#filter0_i_17_4)">
<path d="M2.92342 1.928C2.42209 1.928 2.08342 2.09333 1.90742 2.424C1.73142 2.74933 1.64342 3.30133 1.64342 4.08C1.64342 4.85333 1.73142 5.40533 1.90742 5.736C2.08342 6.06667 2.42209 6.232 2.92342 6.232C3.31276 6.232 3.58742 6.12533 3.74742 5.912C3.91276 5.69867 4.00076 5.38933 4.01142 4.984L4.89142 5.024C4.84876 5.712 4.68342 6.232 4.39542 6.584C4.11276 6.936 3.62209 7.112 2.92342 7.112C2.01142 7.112 1.38209 6.84533 1.03542 6.312C0.859422 6.04533 0.734089 5.736 0.659422 5.384C0.590089 5.02667 0.555422 4.592 0.555422 4.08C0.555422 3.568 0.590089 3.136 0.659422 2.784C0.734089 2.42667 0.859422 2.11467 1.03542 1.848C1.38209 1.31467 2.01142 1.048 2.92342 1.048C3.57942 1.048 4.05142 1.19467 4.33942 1.488C4.62742 1.78133 4.80342 2.21333 4.86742 2.784L3.98742 2.92C3.95542 2.6 3.85676 2.35467 3.69142 2.184C3.52609 2.01333 3.27009 1.928 2.92342 1.928Z" fill="white"/>
<path d="M5.20523 0.12H7.47523L11.8452 7H9.56523L5.20523 0.12ZM8.86523 1.52L9.62523 0.12H11.8152L9.91523 3.18L8.86523 1.52ZM7.08523 3.88L8.12523 5.53L7.35523 7H5.16523L7.08523 3.88Z" fill="#B40600"/>
</g>
<path d="M1.90742 2.424L1.96459 2.45493L1.9648 2.45454L1.90742 2.424ZM3.74742 5.912L3.69604 5.87218L3.69542 5.873L3.74742 5.912ZM4.01142 4.984L4.01437 4.91907L3.94819 4.91606L3.94644 4.98229L4.01142 4.984ZM4.89142 5.024L4.9563 5.02802L4.96039 4.96207L4.89437 4.95907L4.89142 5.024ZM4.39542 6.584L4.34511 6.54284L4.34474 6.5433L4.39542 6.584ZM1.03542 6.312L1.08992 6.27657L1.08967 6.2762L1.03542 6.312ZM0.659422 5.384L0.595602 5.39638L0.595837 5.39749L0.659422 5.384ZM0.659422 2.784L0.595792 2.7707L0.595647 2.77144L0.659422 2.784ZM1.03542 1.848L1.08967 1.88381L1.08992 1.88342L1.03542 1.848ZM4.33942 1.488L4.3858 1.44246L4.3858 1.44246L4.33942 1.488ZM4.86742 2.784L4.87735 2.84824L4.93897 2.83871L4.93202 2.77676L4.86742 2.784ZM3.98742 2.92L3.92274 2.92647L3.92957 2.99471L3.99735 2.98424L3.98742 2.92ZM3.69142 2.184L3.73811 2.13877L3.73811 2.13877L3.69142 2.184ZM2.92342 1.928V1.863C2.40745 1.863 2.04115 2.03442 1.85004 2.39346L1.90742 2.424L1.9648 2.45454C2.1257 2.15225 2.43673 1.993 2.92342 1.993V1.928ZM1.90742 2.424L1.85025 2.39307C1.66597 2.73371 1.57842 3.29998 1.57842 4.08H1.64342H1.70842C1.70842 3.30269 1.79687 2.76496 1.96459 2.45493L1.90742 2.424ZM1.64342 4.08H1.57842C1.57842 4.85493 1.66604 5.42084 1.85004 5.76654L1.90742 5.736L1.9648 5.70546C1.7968 5.38982 1.70842 4.85173 1.70842 4.08H1.64342ZM1.90742 5.736L1.85004 5.76654C2.04115 6.12558 2.40745 6.297 2.92342 6.297V6.232V6.167C2.43673 6.167 2.1257 6.00775 1.9648 5.70546L1.90742 5.736ZM2.92342 6.232V6.297C3.32335 6.297 3.62224 6.18724 3.79942 5.951L3.74742 5.912L3.69542 5.873C3.5526 6.06342 3.30216 6.167 2.92342 6.167V6.232ZM3.74742 5.912L3.7988 5.95182C3.9759 5.7233 4.06554 5.39829 4.0764 4.98571L4.01142 4.984L3.94644 4.98229C3.93597 5.38038 3.84961 5.67404 3.69605 5.87218L3.74742 5.912ZM4.01142 4.984L4.00847 5.04893L4.88847 5.08893L4.89142 5.024L4.89437 4.95907L4.01437 4.91907L4.01142 4.984ZM4.89142 5.024L4.82655 5.01998C4.78431 5.70098 4.62107 6.20556 4.34511 6.54284L4.39542 6.584L4.44573 6.62516C4.74577 6.25844 4.9132 5.72302 4.9563 5.02802L4.89142 5.024ZM4.39542 6.584L4.34474 6.5433C4.07992 6.87308 3.6133 7.047 2.92342 7.047V7.112V7.177C3.63088 7.177 4.14559 6.99892 4.4461 6.6247L4.39542 6.584ZM2.92342 7.112V7.047C2.02309 7.047 1.41988 6.78421 1.08992 6.27658L1.03542 6.312L0.980923 6.34742C1.34429 6.90646 1.99976 7.177 2.92342 7.177V7.112ZM1.03542 6.312L1.08967 6.2762C0.918682 6.01712 0.796198 5.71555 0.723007 5.37051L0.659422 5.384L0.595837 5.39749C0.67198 5.75645 0.800161 6.07355 0.981172 6.3478L1.03542 6.312ZM0.659422 5.384L0.723232 5.37162C0.654937 5.01964 0.620422 4.58938 0.620422 4.08H0.555422H0.490422C0.490422 4.59462 0.525241 5.0337 0.595612 5.39638L0.659422 5.384ZM0.555422 4.08H0.620422C0.620422 3.57059 0.654942 3.14309 0.723197 2.79656L0.659422 2.784L0.595647 2.77144C0.525236 3.12891 0.490422 3.56541 0.490422 4.08H0.555422ZM0.659422 2.784L0.723048 2.79729C0.796274 2.44686 0.918786 2.14272 1.08967 1.8838L1.03542 1.848L0.981172 1.81219C0.800058 2.08661 0.671903 2.40648 0.595796 2.7707L0.659422 2.784ZM1.03542 1.848L1.08992 1.88342C1.41988 1.37579 2.02309 1.113 2.92342 1.113V1.048V0.983C1.99976 0.983 1.34429 1.25354 0.980923 1.81258L1.03542 1.848ZM2.92342 1.048V1.113C3.57202 1.113 4.02285 1.25835 4.29304 1.53354L4.33942 1.488L4.3858 1.44246C4.07999 1.13099 3.58683 0.983 2.92342 0.983V1.048ZM4.33942 1.488L4.29304 1.53354C4.5675 1.81308 4.73982 2.22939 4.80283 2.79124L4.86742 2.784L4.93202 2.77676C4.86703 2.19727 4.68735 1.74959 4.3858 1.44246L4.33942 1.488ZM4.86742 2.784L4.85749 2.71976L3.97749 2.85576L3.98742 2.92L3.99735 2.98424L4.87735 2.84824L4.86742 2.784ZM3.98742 2.92L4.0521 2.91353C4.01915 2.58408 3.91672 2.32314 3.73811 2.13877L3.69142 2.184L3.64474 2.22923C3.79679 2.38619 3.89169 2.61592 3.92274 2.92647L3.98742 2.92ZM3.69142 2.184L3.73811 2.13877C3.55585 1.95064 3.27958 1.863 2.92342 1.863V1.928V1.993C3.2606 1.993 3.49633 2.07603 3.64474 2.22923L3.69142 2.184ZM5.20523 0.12V0.0549998H5.08709L5.15033 0.154793L5.20523 0.12ZM7.47523 0.12L7.5301 0.0851493L7.51095 0.0549998H7.47523V0.12ZM11.8452 7V7.065H11.9635L11.9001 6.96515L11.8452 7ZM9.56523 7L9.51033 7.03479L9.52947 7.065H9.56523V7ZM8.86523 1.52L8.80811 1.48899L8.78991 1.52251L8.8103 1.55475L8.86523 1.52ZM9.62523 0.12V0.0549998H9.58656L9.56811 0.0889888L9.62523 0.12ZM11.8152 0.12L11.8705 0.154287L11.9321 0.0549998H11.8152V0.12ZM9.91523 3.18L9.8603 3.21475L9.91574 3.3024L9.97046 3.21429L9.91523 3.18ZM7.08523 3.88L7.14022 3.84534L7.08457 3.75705L7.02988 3.84593L7.08523 3.88ZM8.12523 5.53L8.18281 5.56016L8.20018 5.527L8.18022 5.49534L8.12523 5.53ZM7.35523 7V7.065H7.39456L7.41281 7.03016L7.35523 7ZM5.16523 7L5.10988 6.96593L5.04891 7.065H5.16523V7ZM5.20523 0.12V0.185H7.47523V0.12V0.0549998H5.20523V0.12ZM7.47523 0.12L7.42037 0.15485L11.7904 7.03485L11.8452 7L11.9001 6.96515L7.5301 0.0851493L7.47523 0.12ZM11.8452 7V6.935H9.56523V7V7.065H11.8452V7ZM9.56523 7L9.62014 6.96521L5.26014 0.0852062L5.20523 0.12L5.15033 0.154793L9.51033 7.03479L9.56523 7ZM8.86523 1.52L8.92236 1.55101L9.68236 0.151011L9.62523 0.12L9.56811 0.0889888L8.80811 1.48899L8.86523 1.52ZM9.62523 0.12V0.185H11.8152V0.12V0.0549998H9.62523V0.12ZM11.8152 0.12L11.76 0.0857122L9.86001 3.14571L9.91523 3.18L9.97046 3.21429L11.8705 0.154287L11.8152 0.12ZM9.91523 3.18L9.97017 3.14525L8.92017 1.48525L8.86523 1.52L8.8103 1.55475L9.8603 3.21475L9.91523 3.18ZM7.08523 3.88L7.03025 3.91466L8.07025 5.56466L8.12523 5.53L8.18022 5.49534L7.14022 3.84534L7.08523 3.88ZM8.12523 5.53L8.06766 5.49984L7.29766 6.96984L7.35523 7L7.41281 7.03016L8.18281 5.56016L8.12523 5.53ZM7.35523 7V6.935H5.16523V7V7.065H7.35523V7ZM5.16523 7L5.22059 7.03407L7.14059 3.91407L7.08523 3.88L7.02988 3.84593L5.10988 6.96593L5.16523 7Z" fill="#EAEAEA"/>
</g>
<defs>
<filter id="filter0_i_17_4" x="0.490417" y="0.0549927" width="11.4731" height="11.122" filterUnits="userSpaceOnUse" color-interpolation-filters="sRGB">
<feFlood flood-opacity="0" result="BackgroundImageFix"/>
<feBlend mode="normal" in="SourceGraphic" in2="BackgroundImageFix" result="shape"/>
<feColorMatrix in="SourceAlpha" type="matrix" values="0 0 0 0 0 0 0 0 0 0 0 0 0 0 0 0 0 0 127 0" result="hardAlpha"/>
<feOffset dy="4"/>
<feGaussianBlur stdDeviation="2"/>
<feComposite in2="hardAlpha" operator="arithmetic" k2="-1" k3="1"/>
<feColorMatrix type="matrix" values="0 0 0 0 0 0 0 0 0 0 0 0 0 0 0 0 0 0 0.05 0"/>
<feBlend mode="normal" in2="shape" result="effect1_innerShadow_17_4"/>
</filter>
</defs>
</svg>
