<svg width="139" height="23" viewBox="0 0 139 23" fill="none" xmlns="http://www.w3.org/2000/svg">
<path d="M9.60475 22.192C7.81275 22.192 6.20208 21.8613 4.77275 21.2C3.34342 20.5387 2.20208 19.568 1.34875 18.288C0.51675 16.9867 0.10075 15.4187 0.10075 13.584C0.10075 12.304 0.32475 10.9173 0.77275 9.424C1.75408 6.224 3.23675 3.92 5.22075 2.512C7.20475 1.08267 9.32742 0.367998 11.5888 0.367998C12.8048 0.367998 13.8821 0.549332 14.8208 0.911999C15.7594 1.27467 16.6234 1.79733 17.4128 2.48L18.2768 1.808C18.8528 1.36 19.3328 1.05067 19.7168 0.879999C20.1221 0.709332 20.5701 0.623999 21.0608 0.623999C21.5941 0.623999 22.0208 0.741332 22.3408 0.976C22.6608 1.21067 22.8208 1.552 22.8208 2C22.8208 2.23467 22.7781 2.46933 22.6928 2.704L20.9008 7.696C20.7088 8.272 20.4741 8.67733 20.1968 8.912C19.9408 9.14667 19.5461 9.264 19.0128 9.264C18.4581 9.264 17.9994 9.072 17.6368 8.688C17.2954 8.28267 16.9008 7.6 16.4528 6.64C15.9408 5.63733 15.5248 4.976 15.2048 4.656C14.8848 4.336 14.4154 4.176 13.7968 4.176C12.9221 4.176 12.0794 4.72 11.2688 5.808C10.4581 6.87467 9.72208 8.48533 9.06075 10.64C8.50608 12.4533 8.22875 13.968 8.22875 15.184C8.22875 16.2507 8.43142 17.0507 8.83675 17.584C9.24208 18.096 9.78608 18.352 10.4688 18.352C11.4714 18.352 12.2928 18.128 12.9328 17.68C13.5941 17.232 14.2661 16.624 14.9488 15.856C15.3754 15.3867 15.7168 15.0453 15.9728 14.832C16.2501 14.5973 16.5381 14.48 16.8368 14.48C17.2208 14.48 17.6261 14.672 18.0528 15.056C18.4794 15.44 18.6821 15.824 18.6608 16.208C18.6821 16.6773 18.2981 17.4027 17.5088 18.384C16.7408 19.3653 15.6634 20.2507 14.2768 21.04C12.9114 21.808 11.3541 22.192 9.60475 22.192ZM36.337 5.072C37.5317 5.072 38.481 5.43467 39.185 6.16C39.9103 6.88533 40.273 7.78133 40.273 8.848C40.273 9.25333 40.2303 9.62667 40.145 9.968C39.9317 10.8427 39.5263 11.5147 38.929 11.984C38.3317 12.4533 37.617 12.688 36.785 12.688C35.9743 12.688 35.3557 12.496 34.929 12.112C34.5237 11.728 34.161 11.216 33.841 10.576C33.6703 10.2133 33.5103 9.94667 33.361 9.776C33.2117 9.60533 33.041 9.52 32.849 9.52C32.6357 9.52 32.4437 9.60533 32.273 9.776C32.1237 9.94667 31.985 10.2453 31.857 10.672L29.393 18.672C29.3503 18.7787 29.329 18.9387 29.329 19.152C29.329 19.4293 29.4037 19.664 29.553 19.856C29.7237 20.0267 29.9477 20.1973 30.225 20.368C30.481 20.5387 30.6517 20.6773 30.737 20.784C30.8223 20.8907 30.8543 21.0293 30.833 21.2C30.7903 21.4773 30.6303 21.68 30.353 21.808C30.097 21.936 29.649 22 29.009 22H20.817C20.2623 22 19.8677 21.9147 19.633 21.744C19.377 21.552 19.281 21.3067 19.345 21.008C19.4303 20.752 19.6543 20.528 20.017 20.336C20.337 20.1653 20.6037 19.9627 20.817 19.728C21.0303 19.4933 21.2117 19.12 21.361 18.608L24.209 9.36C24.2517 9.25333 24.273 9.104 24.273 8.912C24.273 8.67733 24.2197 8.496 24.113 8.368C24.0277 8.24 23.8783 8.08 23.665 7.888C23.4517 7.71733 23.3023 7.568 23.217 7.44C23.1317 7.312 23.121 7.14133 23.185 6.928C23.313 6.43733 23.985 6.01067 25.201 5.648C26.417 5.264 27.6863 5.072 29.009 5.072C29.8837 5.072 30.609 5.27467 31.185 5.68C31.761 6.064 32.1343 6.61867 32.305 7.344C33.329 5.82933 34.673 5.072 36.337 5.072ZM50.0043 4.912C52.7136 4.912 54.6763 5.34933 55.8923 6.224C57.1083 7.07733 57.7163 8.176 57.7163 9.52C57.7163 9.92533 57.6736 10.2987 57.5883 10.64C57.2683 12.048 56.3723 13.0613 54.9003 13.68C53.4496 14.2773 51.7323 14.576 49.7483 14.576C48.7456 14.576 47.8069 14.512 46.9323 14.384C46.9109 15.4933 47.2096 16.272 47.8283 16.72C48.4469 17.168 49.3109 17.392 50.4203 17.392C50.9323 17.392 51.4229 17.3387 51.8923 17.232C52.3616 17.104 52.9589 16.9227 53.6843 16.688C54.2816 16.4747 54.6869 16.368 54.9003 16.368C55.1349 16.368 55.2523 16.5067 55.2523 16.784C55.2736 17.5307 54.9963 18.32 54.4203 19.152C53.8443 19.9627 52.9909 20.656 51.8603 21.232C50.7296 21.808 49.3643 22.096 47.7643 22.096C45.3963 22.096 43.4549 21.4987 41.9403 20.304C40.4256 19.1093 39.6683 17.3707 39.6683 15.088C39.6683 14.448 39.7536 13.7013 39.9243 12.848C40.4576 10.224 41.6203 8.25067 43.4123 6.928C45.2256 5.584 47.4229 4.912 50.0043 4.912ZM47.1562 12.464C47.2416 12.4853 47.3589 12.496 47.5083 12.496C48.4043 12.496 49.0869 12.08 49.5563 11.248C50.0256 10.416 50.2496 9.488 50.2283 8.464C50.2069 7.86667 50.0363 7.568 49.7163 7.568C49.4816 7.568 49.2043 7.76 48.8843 8.144C48.5643 8.50667 48.2443 9.06133 47.9243 9.808C47.6256 10.5547 47.3696 11.44 47.1562 12.464ZM68.4865 5.072C70.9398 5.072 72.9025 5.53067 74.3745 6.448C75.8465 7.344 76.5825 8.72 76.5825 10.576C76.5825 11.28 76.4545 12.08 76.1985 12.976L74.8865 17.392C74.8652 17.4773 74.8545 17.584 74.8545 17.712C74.8545 18.0533 74.9932 18.224 75.2705 18.224C75.5265 18.224 75.7398 18.1173 75.9105 17.904C76.1025 17.6693 76.2305 17.552 76.2945 17.552C76.4012 17.552 76.4865 17.6267 76.5505 17.776C76.6358 17.9253 76.6785 18.096 76.6785 18.288C76.6998 18.864 76.4758 19.4507 76.0065 20.048C75.5585 20.6453 74.9505 21.136 74.1825 21.52C73.4145 21.904 72.5718 22.096 71.6545 22.096C70.5452 22.096 69.5958 21.8933 68.8065 21.488C68.0172 21.0827 67.4732 20.4853 67.1745 19.696C66.5345 20.464 65.7772 21.0613 64.9025 21.488C64.0278 21.8933 63.0892 22.096 62.0865 22.096C60.9558 22.096 60.0065 21.8827 59.2385 21.456C58.4705 21.008 57.8945 20.4427 57.5105 19.76C57.1478 19.056 56.9665 18.32 56.9665 17.552C56.9665 17.2107 56.9985 16.88 57.0625 16.56C57.4038 15.088 58.1398 13.9787 59.2705 13.232C60.4225 12.4853 61.7878 12.112 63.3665 12.112C65.1372 12.112 66.8758 12.3893 68.5825 12.944L69.3825 10.832C69.6598 9.936 69.7985 9.24267 69.7985 8.752C69.7772 8.24 69.6065 7.856 69.2865 7.6C68.9665 7.344 68.4758 7.216 67.8145 7.216C67.9425 7.55733 68.0065 7.90933 68.0065 8.272C68.0065 9.06133 67.7078 9.744 67.1105 10.32C66.5132 10.896 65.6598 11.184 64.5505 11.184C63.5052 11.184 62.6838 10.96 62.0865 10.512C61.5105 10.0427 61.2225 9.46667 61.2225 8.784C61.2225 7.71733 61.8198 6.832 63.0145 6.128C64.2092 5.424 66.0332 5.072 68.4865 5.072ZM66.6945 14.768C66.0972 14.768 65.6065 15.0027 65.2225 15.472C64.8598 15.92 64.6785 16.4107 64.6785 16.944C64.6785 17.2853 64.7532 17.5627 64.9025 17.776C65.0732 17.9893 65.3078 18.096 65.6065 18.096C65.8838 18.096 66.1825 17.9893 66.5025 17.776C66.8438 17.5413 67.0892 17.2 67.2385 16.752L67.9105 14.864C67.5478 14.8 67.1425 14.768 66.6945 14.768ZM92.304 5.488C92.7093 5.488 93.0187 5.57333 93.232 5.744C93.4667 5.91467 93.584 6.14933 93.584 6.448C93.584 6.53333 93.5627 6.68267 93.52 6.896C93.2427 7.83467 92.6027 8.304 91.6 8.304H89.744L87.344 16.208C87.2373 16.528 87.184 16.8587 87.184 17.2C87.184 17.584 87.2907 17.8507 87.504 18C87.7173 18.1493 88.016 18.224 88.4 18.224C88.7413 18.224 89.168 18.1813 89.68 18.096C89.936 18.032 90.16 18 90.352 18C90.5013 18 90.608 18.0533 90.672 18.16C90.7573 18.2453 90.8 18.3627 90.8 18.512C90.8213 18.9387 90.5013 19.4613 89.84 20.08C89.2 20.6773 88.3253 21.2 87.216 21.648C86.1067 22.0747 84.88 22.288 83.536 22.288C82.0853 22.288 80.9227 21.9573 80.048 21.296C79.1733 20.6347 78.736 19.728 78.736 18.576C78.736 18.0427 78.8213 17.5307 78.992 17.04L81.04 10.704C81.1467 10.3413 81.2 10.0533 81.2 9.84C81.2 9.41333 81.0933 9.05067 80.88 8.752C80.688 8.45333 80.4107 8.144 80.048 7.824C79.728 7.52533 79.504 7.28 79.376 7.088C79.248 6.87467 79.216 6.62933 79.28 6.352C79.3653 6.07467 79.5467 5.86133 79.824 5.712C80.1013 5.56267 80.5387 5.488 81.136 5.488H82.928L84.944 3.472C85.648 2.768 86.288 2.27733 86.864 2C87.4613 1.72267 88.2293 1.584 89.168 1.584C90.512 1.584 91.184 2.096 91.184 3.12C91.184 3.44 91.1413 3.73867 91.056 4.016L90.608 5.488H92.304ZM102.598 4.912C105.307 4.912 107.27 5.34933 108.486 6.224C109.702 7.07733 110.31 8.176 110.31 9.52C110.31 9.92533 110.267 10.2987 110.182 10.64C109.862 12.048 108.966 13.0613 107.494 13.68C106.043 14.2773 104.326 14.576 102.342 14.576C101.339 14.576 100.401 14.512 99.526 14.384C99.5047 15.4933 99.8033 16.272 100.422 16.72C101.041 17.168 101.905 17.392 103.014 17.392C103.526 17.392 104.017 17.3387 104.486 17.232C104.955 17.104 105.553 16.9227 106.278 16.688C106.875 16.4747 107.281 16.368 107.494 16.368C107.729 16.368 107.846 16.5067 107.846 16.784C107.867 17.5307 107.59 18.32 107.014 19.152C106.438 19.9627 105.585 20.656 104.454 21.232C103.323 21.808 101.958 22.096 100.358 22.096C97.99 22.096 96.0487 21.4987 94.534 20.304C93.0193 19.1093 92.262 17.3707 92.262 15.088C92.262 14.448 92.3473 13.7013 92.518 12.848C93.0513 10.224 94.214 8.25067 96.006 6.928C97.8193 5.584 100.017 4.912 102.598 4.912ZM99.75 12.464C99.8353 12.4853 99.9527 12.496 100.102 12.496C100.998 12.496 101.681 12.08 102.15 11.248C102.619 10.416 102.843 9.488 102.822 8.464C102.801 7.86667 102.63 7.568 102.31 7.568C102.075 7.568 101.798 7.76 101.478 8.144C101.158 8.50667 100.838 9.06133 100.518 9.808C100.219 10.5547 99.9633 11.44 99.75 12.464Z" fill="#424551"/>
<path d="M137.048 0.688C137.539 0.688 137.912 0.784 138.168 0.976C138.424 1.14667 138.552 1.38133 138.552 1.68C138.552 1.808 138.542 1.904 138.52 1.968C138.456 2.24533 138.328 2.45867 138.136 2.608C137.944 2.736 137.635 2.88533 137.208 3.056C136.632 3.312 136.11 3.568 135.64 3.824C135.192 4.05867 134.67 4.432 134.072 4.944L127.704 10.352L130.808 17.904C131.022 18.416 131.256 18.8107 131.512 19.088C131.79 19.3653 132.12 19.632 132.504 19.888C132.782 20.1013 132.974 20.272 133.08 20.4C133.187 20.5067 133.24 20.6667 133.24 20.88C133.24 21.264 133.112 21.552 132.856 21.744C132.6 21.9147 132.174 22 131.576 22H122.968C122.414 22 121.998 21.9147 121.72 21.744C121.464 21.552 121.336 21.3067 121.336 21.008C121.336 20.88 121.347 20.784 121.368 20.72C121.411 20.5707 121.486 20.4427 121.592 20.336C121.699 20.208 121.806 20.1013 121.912 20.016C122.083 19.8667 122.211 19.728 122.296 19.6C122.382 19.472 122.424 19.2907 122.424 19.056C122.424 18.6933 122.307 18.224 122.072 17.648L120.952 14.928L118.04 17.648C117.443 18.1813 117.144 18.6613 117.144 19.088C117.144 19.28 117.187 19.44 117.272 19.568C117.358 19.696 117.496 19.8667 117.688 20.08C117.88 20.272 118.019 20.4533 118.104 20.624C118.211 20.7947 118.232 20.976 118.168 21.168C118.083 21.488 117.902 21.712 117.624 21.84C117.368 21.9467 116.952 22 116.376 22H109.688C109.198 22 108.824 21.9147 108.568 21.744C108.312 21.552 108.184 21.3067 108.184 21.008C108.184 20.88 108.195 20.784 108.216 20.72C108.28 20.4427 108.408 20.24 108.6 20.112C108.792 19.9627 109.102 19.8027 109.528 19.632C110.126 19.376 110.648 19.12 111.096 18.864C111.566 18.608 112.088 18.2347 112.664 17.744L119.64 11.76L116.76 4.784C116.547 4.272 116.302 3.87733 116.024 3.6C115.768 3.32267 115.448 3.056 115.064 2.8C114.787 2.58667 114.595 2.42667 114.488 2.32C114.382 2.192 114.328 2.02133 114.328 1.808C114.328 1.424 114.456 1.14667 114.712 0.976C114.968 0.784 115.395 0.688 115.992 0.688H124.6C125.155 0.688 125.56 0.784 125.816 0.976C126.094 1.14667 126.232 1.38133 126.232 1.68C126.232 1.808 126.222 1.904 126.2 1.968C126.158 2.11733 126.083 2.256 125.976 2.384C125.87 2.49067 125.763 2.58667 125.656 2.672C125.486 2.82133 125.358 2.96 125.272 3.088C125.187 3.216 125.144 3.39733 125.144 3.632C125.144 3.97333 125.262 4.44267 125.496 5.04L126.392 7.184L128.696 5.04C129.315 4.48533 129.624 4.00533 129.624 3.6C129.624 3.408 129.571 3.248 129.464 3.12C129.379 2.97067 129.24 2.8 129.048 2.608C129.006 2.56533 128.92 2.48 128.792 2.352C128.686 2.20267 128.611 2.064 128.568 1.936C128.526 1.78667 128.526 1.648 128.568 1.52C128.654 1.2 128.824 0.986666 129.08 0.879999C129.358 0.752 129.784 0.688 130.36 0.688H137.048Z" fill="#B40600"/>
</svg>
