<svg width="138" height="28" viewBox="0 0 138 28" fill="none" xmlns="http://www.w3.org/2000/svg">
<path d="M9.96517 6.712C7.95984 6.712 6.60517 7.37333 5.90117 8.696C5.19717 9.99733 4.84517 12.2053 4.84517 15.32C4.84517 18.4133 5.19717 20.6213 5.90117 21.944C6.60517 23.2667 7.95984 23.928 9.96517 23.928C11.5225 23.928 12.6212 23.5013 13.2612 22.648C13.9225 21.7947 14.2745 20.5573 14.3172 18.936L17.8372 19.096C17.6665 21.848 17.0052 23.928 15.8532 25.336C14.7225 26.744 12.7598 27.448 9.96517 27.448C6.31717 27.448 3.79984 26.3813 2.41317 24.248C1.70917 23.1813 1.20784 21.944 0.909172 20.536C0.631839 19.1067 0.493172 17.368 0.493172 15.32C0.493172 13.272 0.631839 11.544 0.909172 10.136C1.20784 8.70667 1.70917 7.45867 2.41317 6.392C3.79984 4.25867 6.31717 3.192 9.96517 3.192C12.5892 3.192 14.4772 3.77867 15.6292 4.952C16.7812 6.12533 17.4852 7.85333 17.7412 10.136L14.2212 10.68C14.0932 9.4 13.6985 8.41866 13.0372 7.736C12.3758 7.05333 11.3518 6.712 9.96517 6.712ZM21.7404 3.64H29.9004C32.8658 3.64 34.9244 4.41867 36.0764 5.976C37.0578 7.32 37.5484 8.89867 37.5484 10.712C37.5484 13.9333 36.2898 16.0667 33.7724 17.112C34.2418 17.624 34.6471 18.264 34.9884 19.032L38.5404 27H33.9004L30.5724 19.416C30.2738 18.776 29.9431 18.3387 29.5804 18.104C29.2391 17.8693 28.7164 17.752 28.0124 17.752H26.0924V27H21.7404V3.64ZM26.0924 14.392H29.3884C30.6684 14.392 31.6178 14.04 32.2364 13.336C32.8764 12.632 33.1964 11.7573 33.1964 10.712C33.1964 9.64533 32.8764 8.76 32.2364 8.056C31.6178 7.352 30.6684 7 29.3884 7H26.0924V14.392ZM42.8654 3.64H56.0494V7H47.2174V13.464H55.2494V16.792H47.2174V23.64H56.6894V27H42.8654V3.64ZM65.2197 3.64H70.8837L78.0517 27H73.8597L71.8757 20.536H64.1957L62.2437 27H58.0197L65.2197 3.64ZM68.0357 7.768L65.1877 17.24H70.8837L68.0357 7.768ZM77.1059 6.936V3.64H93.7139V6.936H87.6019V27H83.2499V6.936H77.1059ZM96.6467 3.64H109.831V7H100.999V13.464H109.031V16.792H100.999V23.64H110.471V27H96.6467V3.64Z" fill="#424551"/>
<path d="M111.887 0.855999H120.513L137.119 27H128.455L111.887 0.855999ZM125.795 6.176L128.683 0.855999H137.005L129.785 12.484L125.795 6.176ZM119.031 15.144L122.983 21.414L120.057 27H111.735L119.031 15.144Z" fill="#B40600"/>
</svg>
